# xmcd
#
# Track frame offsets: 
#        150
#        14480
#        24662
#        38570
#        53120
#        66375
#        80395
#        97465
#        110677
#        124635
#        136992
#        150070
#        164540
#        181545
#
# Disc length: 2575 seconds
#
# Revision: 0
# Processed by: cddbd v1.5.1PL0 Copyright (c) Steve Scherf et al.
# Submitted via: ExactAudioCopy v0.95a5
#
DISCID=b10a0d0e
DTITLE=Various Artist - Bailão Sertanejo - Volume 3
DYEAR=1999
DGENRE=Country
TTITLE0=Pedágio De São Paulo A Rio Preto - Jorge Moisés
TTITLE1=Amor Carrapicho - Ataíde and Alexandre
TTITLE2=220 Volts - Luis Gustavo and Rafael
TTITLE3=Meu Amor Fugiu De Mim - Juliano Cesar
TTITLE4=Menina Gente Fina - Alex and Alexandre
TTITLE5=Cunhada Boa - Di Paula and Fabiano
TTITLE6=Eu Tô Maluco - Igor and Iago
TTITLE7=Esconde-Esconde - Eric and Henrique
TTITLE8=Pomba Morena - Benê and Paulinho
TTITLE9=O Negócio Da Minha Mulher - Odair and Junior
TTITLE10=Pegando Fogo - Fred and Pedrito
TTITLE11=Morena Boiadeira - Luis Claudio and Giuliano
TTITLE12=Pagodinho Do Cumpadre - Elvis and Ricardo
TTITLE13=Ladrão De Mulher - Dombhar and Donizete
EXTD=
EXTT0=
EXTT1=
EXTT2=
EXTT3=
EXTT4=
EXTT5=
EXTT6=
EXTT7=
EXTT8=
EXTT9=
EXTT10=
EXTT11=
EXTT12=
EXTT13=
PLAYORDER=
